<?xml version="1.0" encoding="UTF-8"?>
<!DOCTYPE svg PUBLIC "-//W3C//DTD SVG 1.1//EN" "http://www.w3.org/Graphics/SVG/1.1/DTD/svg11.dtd">
<!-- Creator: CorelDRAW Home & Student X8 -->
<svg xmlns="http://www.w3.org/2000/svg" xml:space="preserve" width="11in" height="6.85in" version="1.1" style="shape-rendering:geometricPrecision; text-rendering:geometricPrecision; image-rendering:optimizeQuality; fill-rule:evenodd; clip-rule:evenodd"
viewBox="0 0 11000 6850"
 xmlns:xlink="http://www.w3.org/1999/xlink">
 <defs>
  <style type="text/css">
   <![CDATA[
    .str5 {stroke:#006633;stroke-width:27.7795}
    .str6 {stroke:#006633;stroke-width:20.8307}
    .str0 {stroke:#006633;stroke-width:13.8858}
    .str3 {stroke:#006332;stroke-width:6.94488}
    .str1 {stroke:#006633;stroke-width:6.94488}
    .str4 {stroke:#006633;stroke-width:6.94488}
    .str2 {stroke:#006633;stroke-width:3}
    .fil1 {fill:none}
    .fil2 {fill:#006633}
    .fil0 {fill:#6EDB4C}
    .fil3 {fill:#006633;fill-rule:nonzero}
   ]]>
  </style>
 </defs>
 <g id="Layer_x0020_1">
  <metadata id="CorelCorpID_0Corel-Layer"/>
  <rect class="fil0" x="-22" width="11028" height="6875"/>
  <polygon class="fil1 str0" points="2588,4532 2625,4551 2663,4570 2663,4607 2663,4645 2625,4664 2588,4682 2550,4664 2512,4645 2512,4607 2512,4570 2550,4551 "/>
  <polygon class="fil1 str0" points="2983,4915 3021,4934 3058,4953 3058,4990 3058,5028 3021,5046 2983,5065 2945,5046 2907,5028 2907,4990 2907,4953 2945,4934 "/>
  <polygon class="fil1 str0" points="2790,5100 2827,5119 2865,5138 2865,5175 2865,5213 2827,5231 2790,5250 2752,5231 2714,5213 2714,5175 2714,5138 2752,5119 "/>
  <polygon class="fil2 str0" points="2790,4720 2827,4739 2865,4757 2865,4795 2865,4832 2827,4851 2790,4870 2752,4851 2714,4832 2714,4795 2714,4757 2752,4739 "/>
  <rect class="fil1 str0" x="2726" y="4544" width="127" height="126"/>
  <rect class="fil1 str0" x="2524" y="4737" width="127" height="126"/>
  <rect class="fil1 str0" x="2726" y="4936" width="127" height="126"/>
  <rect class="fil2 str0" x="2920" y="5117" width="127" height="126"/>
  <rect class="fil1 str0" transform="matrix(0.252126 -0.304164 0.24748 0.298559 2918.43 4593.9)" width="255" height="260"/>
  <rect class="fil1 str0" transform="matrix(0.252126 -0.304164 0.24748 0.298559 3108.67 4794.79)" width="255" height="260"/>
  <rect class="fil2 str0" transform="matrix(0.252126 -0.304164 0.24748 0.298559 1017.9 1661.11)" width="255" height="260"/>
  <rect class="fil1 str0" transform="matrix(0.252126 -0.304164 0.24748 0.298559 3108.67 5164.59)" width="255" height="260"/>
  <rect class="fil1 str0" transform="matrix(0.252126 -0.304164 0.24748 0.298559 2523.19 4984.9)" width="255" height="260"/>
  <rect class="fil1 str0" transform="matrix(0.356642 -0.304164 0.350069 0.298559 3279.12 4599.48)" width="255" height="260"/>
  <rect class="fil1 str0" transform="matrix(0.356642 -0.304164 0.350069 0.298559 3279.12 4795.17)" width="255" height="260"/>
  <rect class="fil2 str0" transform="matrix(0.356642 -0.304164 0.350069 0.298559 3279.12 4990.86)" width="255" height="260"/>
  <rect class="fil1 str0" transform="matrix(0.356642 -0.304164 0.350069 0.298559 3279.12 5186.55)" width="255" height="260"/>
  <polygon class="fil2 str0" points="3173,4539 3218,4602 3262,4666 3173,4666 3084,4666 3128,4602 "/>
  <polygon class="fil1 str0" points="2983,4721 3027,4784 3072,4847 2983,4847 2894,4847 2938,4784 "/>
  <polygon class="fil1 str0" points="3173,4931 3218,4994 3262,5057 3173,5057 3084,5057 3128,4994 "/>
  <polygon class="fil1 str0" points="2588,5109 2632,5172 2677,5235 2588,5235 2498,5235 2543,5172 "/>
  <polyline class="fil1 str1" points="3629,4110 4456,4089 7100,1501 9016,1501 9032,4860 7488,4858 6046,6139 5320,6135 5250,6188 5135,6062 5032,6196 4922,6076 4878,6130 4608,6128 4298,5915 3823,5912 "/>
  <g>
   <path class="fil3" d="M9598 1661l7 7 0 28 -14 0 0 -28 7 7 0 -14zm0 0l7 0 0 7 -7 -7zm-63 7l7 -7 56 0 0 14 -56 0 7 -7 -14 0zm0 0l0 -7 7 0 -7 7zm7 63l-7 -7 0 -56 14 0 0 56 -7 -7 0 14zm0 0l-7 0 0 -7 7 7zm63 -7l-7 7 -56 0 0 -14 56 0 -7 7 14 0zm0 0l0 7 -7 0 7 -7zm-7 -28l7 0 0 28 -14 0 0 -28 7 0zm580 5l-608 -1 0 -7 608 1 3 1 -3 6zm0 -7l2 0 1 1 -3 -1zm681 655l-683 -649 5 -5 683 649 1 3 -6 2zm5 -5l1 1 0 2 -1 -3zm-1 3307l-5 -3304 7 0 5 3304 -7 0zm45 0l0 0 0 2 0 2 -1 2 0 2 0 2 -1 2 -1 2 0 2 -1 2 -1 1 -1 2 -1 2 -1 1 -2 2 -1 1 -1 2 -2 1 -1 2 -2 1 -1 1 -2 1 -2 1 -1 1 -2 1 -2 1 -2 0 -2 1 -2 0 -2 1 -2 0 -2 0 -2 0 0 0 -3 0 -2 0 -2 0 -2 -1 -2 0 -2 -1 -2 0 -1 -1 -2 -1 -2 -1 -2 -1 -1 -1 -2 -1 -2 -1 -1 -2 -2 -1 -1 -1 -1 -2 -1 -1 -2 -2 -1 -2 -1 -2 -1 -1 0 -2 -1 -2 -1 -2 0 -2 -1 -2 0 -2 -1 -2 0 -2 0 -2 0 0 0 -2 0 -2 1 -2 0 -2 1 -2 0 -2 1 -2 0 -2 1 -2 1 -2 1 -2 1 -1 1 -2 2 -1 1 -2 1 -1 2 -2 1 -1 2 -1 1 -1 2 -1 2 -1 2 -1 1 -1 2 -1 2 -1 2 0 2 -1 2 0 2 0 2 0 2 -1 0 0 3 1 2 0 2 0 2 0 2 1 2 0 2 1 2 1 1 1 2 0 2 1 2 2 1 1 2 1 1 1 2 2 1 1 1 1 2 2 1 2 1 1 1 2 1 2 1 2 0 2 1 1 1 2 0 2 0 2 1 3 0 2 0 2z"/>
  </g>
  <g>
   <path class="fil3" d="M1823 5508l-7 7 -28 0 0 -14 28 0 -7 7 14 0zm0 0l0 7 -7 0 7 -7zm-8 -63l7 7 1 56 -14 0 -1 -56 8 7 -1 -14zm0 0l7 0 0 7 -7 -7zm-63 7l7 -7 56 0 1 14 -56 0 6 -7 -14 0zm0 0l0 -7 7 0 -7 7zm8 63l-7 -7 -1 -56 14 0 1 56 -7 -7 0 14zm0 0l-7 0 0 -7 7 7zm28 -7l0 7 -28 0 0 -14 28 0 0 7zm-3 577l-1 -605 7 0 1 605 -6 3 -1 -3zm1 3l-1 -1 0 -2 1 3zm653 679l-653 -679 5 -5 653 679 -3 6 -2 -1zm2 1l-1 0 -1 -1 2 1zm3321 5l-3321 -5 1 -7 3320 5 0 7zm0 -44l0 0 3 0 2 0 2 0 2 0 2 1 2 0 2 1 1 1 2 1 2 1 2 1 1 1 2 1 2 1 1 1 2 2 1 1 1 2 1 1 2 2 1 1 1 2 1 2 0 2 1 2 1 2 0 2 1 2 0 2 0 2 1 2 0 2 0 0 0 2 -1 2 0 2 0 2 -1 2 0 2 -1 2 -1 2 0 2 -1 2 -1 1 -1 2 -2 2 -1 1 -1 2 -2 1 -1 1 -1 2 -2 1 -2 1 -1 1 -2 1 -2 1 -2 1 -2 1 -1 0 -2 1 -2 0 -2 1 -3 0 -2 0 -2 0 0 0 -2 0 -2 0 -2 0 -2 -1 -2 0 -2 -1 -2 0 -2 -1 -2 -1 -1 -1 -2 -1 -2 -1 -1 -1 -2 -1 -1 -2 -2 -1 -1 -1 -2 -2 -1 -1 -1 -2 -1 -2 -1 -2 -1 -1 -1 -2 0 -2 -1 -2 -1 -2 0 -2 -1 -2 0 -2 0 -2 0 -2 0 0 0 -2 0 -2 1 -2 0 -3 0 -2 1 -1 1 -2 0 -2 1 -2 1 -2 1 -2 1 -1 1 -2 2 -1 1 -2 1 -1 2 -2 1 -1 2 -1 1 -1 2 -2 2 0 2 -1 1 -1 2 -1 2 -1 2 0 2 -1 2 0 2 0 2 0 2 0z"/>
  </g>
  <g>
   <path class="fil3" d="M919 6162l0 -10 19 -20 10 10 -19 20 0 -10 -10 10zm0 0l-5 -4 5 -6 0 10zm51 39l-10 0 -41 -39 10 -10 40 39 -10 0 11 10zm0 0l-5 5 -5 -5 10 0zm38 -51l0 10 -38 41 -11 -10 39 -41 0 10 10 -10zm0 0l5 5 -5 5 0 -10zm-51 -38l10 0 41 38 -10 10 -40 -38 10 0 -11 -10zm0 0l5 -5 5 5 -10 0zm-14 25l-5 -5 19 -20 11 10 -20 20 -5 -5zm-660 -633l683 650 -5 5 -683 -649 -1 -3 6 -3zm-5 6l-1 -2 0 -1 1 3zm-12 -4281l18 4278 -7 0 -18 -4278 1 -2 6 2zm-7 0l0 -1 1 -1 -1 2zm940 -940l-934 942 -5 -4 934 -943 5 5zm-32 -32l0 0 2 -1 1 -2 2 -1 2 -1 2 -1 1 -1 2 -1 2 -1 2 -1 2 0 2 -1 2 0 2 0 2 -1 1 0 2 0 2 0 2 0 2 1 2 0 2 0 2 1 2 0 2 1 2 1 2 1 1 1 2 1 2 1 2 1 1 2 2 1 0 0 1 2 2 1 1 2 1 2 1 1 1 2 1 2 1 2 1 2 0 1 1 2 0 2 0 2 1 2 0 2 0 2 0 2 0 2 0 2 -1 2 0 2 -1 2 0 2 -1 2 -1 2 -1 1 -1 2 -1 2 -1 2 -1 1 -2 2 -1 1 0 0 -2 2 -1 1 -2 2 -1 1 -2 1 -2 1 -2 1 -2 1 -1 0 -2 1 -2 0 -2 1 -2 0 -2 0 -2 1 -2 0 -2 0 -2 0 -2 -1 -2 0 -2 0 -2 -1 -2 -1 -2 0 -2 -1 -1 -1 -2 -1 -2 -1 -2 -1 -1 -1 -2 -2 -1 -1 0 0 -2 -2 -1 -1 -2 -2 -1 -2 -1 -1 -1 -2 -1 -2 -1 -2 0 -2 -1 -2 0 -2 -1 -2 0 -2 0 -1 -1 -2 0 -2 0 -2 1 -2 0 -2 0 -2 1 -2 0 -2 1 -2 0 -2 1 -2 1 -2 1 -1 1 -2 1 -2 2 -2 1 -1 1 -2z"/>
  </g>
  <g>
   <path class="fil3" d="M3352 1301l-7 -7 0 -28 14 0 0 28 -7 -7 0 14zm0 0l-7 0 0 -7 7 7zm63 -8l-7 8 -56 0 0 -14 56 0 -7 7 14 -1zm0 0l0 7 -7 1 7 -8zm-7 -62l7 6 0 56 -14 1 0 -56 7 7 0 -14zm0 0l7 -1 0 7 -7 -6zm-63 7l7 -7 56 0 0 14 -56 0 7 -7 -14 0zm0 0l0 -7 7 0 -7 7zm7 28l-7 0 0 -28 14 0 0 28 -7 0zm-581 -6l609 -1 0 14 -609 1 -4 -13 4 -1zm-4 1l2 -1 2 0 -4 1zm-1227 872l1227 -872 8 12 -1227 871 -11 -6 3 -5zm-3 5l0 -3 3 -2 -3 5zm22 4272l-22 -4272 14 0 21 4272 -3 6 -10 -6zm13 0l1 4 -4 2 3 -6zm-678 315l669 -322 6 13 -669 322 -3 0 -3 -13zm6 13l-1 0 -2 0 3 0zm-824 -11l821 -2 0 13 -821 3 0 -14zm0 48l0 0 -2 0 -2 0 -2 0 -2 -1 -2 0 -2 -1 -2 0 -2 -1 -2 -1 -1 -1 -2 -1 -2 -1 -1 -1 -2 -1 -1 -1 -2 -2 -1 -1 -2 -2 -1 -1 -1 -2 -1 -1 -1 -2 -1 -2 -1 -2 -1 -2 0 -2 -1 -2 0 -2 -1 -2 0 -2 0 -2 0 -2 0 0 0 -2 0 -2 0 -2 1 -2 0 -2 1 -2 0 -2 1 -2 1 -2 1 -2 1 -1 1 -2 1 -2 1 -1 2 -2 1 -1 1 -1 2 -2 1 -1 2 -1 2 -1 1 -1 2 -1 2 -1 2 -1 2 0 2 -1 2 0 2 -1 2 0 2 0 2 0 0 0 2 0 2 0 2 0 2 1 2 0 2 1 2 0 2 1 2 1 2 1 1 1 2 1 2 1 1 1 2 1 1 2 2 1 1 2 1 1 1 2 1 1 1 2 1 2 1 2 1 2 1 2 0 2 1 2 0 2 0 2 0 2 0 2 0 0 0 2 0 2 0 2 0 2 -1 2 0 2 -1 2 -1 2 -1 2 0 2 -1 1 -2 2 -1 2 -1 1 -1 2 -2 1 -1 1 -1 2 -2 1 -2 1 -1 1 -2 1 -2 1 -2 1 -2 1 -1 0 -2 1 -2 0 -2 1 -2 0 -3 0 -2 0z"/>
  </g>
  <polyline class="fil1 str1" points="1218,1722 1219,1116 1872,437 7406,426 7890,864 9239,869 9238,672 9750,208 10586,217 11011,626 "/>
  <polyline class="fil1 str1" points="1082,1661 1087,1104 1820,300 7354,289 7839,727 9187,732 9186,535 9698,71 10534,80 11011,536 "/>
  <polyline class="fil1 str2" points="7841,1877 7841,3060 6726,3060 4082,5648 2166,5648 2151,2289 3695,2291 5137,1010 6574,1021 9447,1018 9462,644 9823,318 10461,317 11011,859 "/>
  <g>
   <path class="fil1 str3" d="M3488 3923c101,0 183,82 183,183 0,102 -82,184 -183,184 -101,0 -183,-82 -183,-184 0,-101 82,-183 183,-183z"/>
  </g>
  <circle class="fil1 str4" cx="3488" cy="4106" r="139"/>
  <ellipse class="fil1 str1" cx="3492" cy="4111" rx="66" ry="67"/>
  <ellipse class="fil1 str5" cx="3430" cy="1256" rx="251" ry="250"/>
  <rect class="fil1 str1" x="2410" y="4451" width="1117" height="889" rx="98" ry="97"/>
  <polyline class="fil1 str6" points="2929,4444 2932,2840 5060,2835 6696,1271 9373,1274 9345,6316 6438,6319 6438,6500 "/>
 </g>
</svg>
